# xmcd
#
# Track frame offsets: 
#        165
#        16745
#        25390
#        38423
#        52518
#        61080
#        74670
#        87055
#        95115
#        108588
#        117820
#        137070
#        145953
#        159898
#        176760
#        195050
#
# Disc length: 2714 seconds
#
# Revision: 0
# Processed by: cddbd v1.5.2PL0 Copyright (c) Steve Scherf et al.
# Submitted via: ExactAudioCopy v0.99pb4
#
DISCID=c50a9810
DTITLE=Андрей Никольский - Нежный плен
DYEAR=1994
DGENRE=Vocal
TTITLE0=01. Над рекой широкою
TTITLE1=02. Года прошли
TTITLE2=03. Романс ("Плыли облака..."
TTITLE3=04. Неразгаданная ложь
TTITLE4=05. Я тебя целую
TTITLE5=06. Сон в декабре
TTITLE6=07. Мираж
TTITLE7=08. Нежный плен
TTITLE8=09. Как же быть моей душе
TTITLE9=10. Милый друг
TTITLE10=11. Марево
TTITLE11=12. Ненужные слова
TTITLE12=13. Июльский снегопад
TTITLE13=14. Январские печали
TTITLE14=15. Лишний друг
TTITLE15=16. Странные слова
EXTD=
EXTT0=
EXTT1=
EXTT2=
EXTT3=
EXTT4=
EXTT5=
EXTT6=
EXTT7=
EXTT8=
EXTT9=
EXTT10=
EXTT11=
EXTT12=
EXTT13=
EXTT14=
EXTT15=
PLAYORDER=
